<?xml version="1.0" standalone="no"?>
<!DOCTYPE svg PUBLIC "-//W3C//DTD SVG 20010904//EN"
 "http://www.w3.org/TR/2001/REC-SVG-20010904/DTD/svg10.dtd">
<svg version="1.0" xmlns="http://www.w3.org/2000/svg"
 width="645.000000pt" height="387.000000pt" viewBox="0 0 645.000000 387.000000"
 preserveAspectRatio="xMidYMid meet">
<metadata>
Created by potrace 1.16, written by Peter Selinger 2001-2019
</metadata>
<g transform="translate(0.000000,387.000000) scale(0.100000,-0.100000)"
fill="#000000" stroke="none">
<path d="M4465 3558 c-36 -19 -86 -72 -106 -110 -30 -58 -24 -105 21 -200 37
-75 41 -89 39 -153 -4 -112 15 -76 26 51 9 106 12 118 35 136 26 21 38 21 265
2 l70 -6 0 -101 c1 -110 22 -179 58 -185 15 -3 17 5 17 62 0 44 4 68 14 73 19
11 48 105 48 159 1 29 -5 54 -18 72 -11 15 -26 46 -32 69 -17 57 -43 73 -119
73 -85 0 -154 16 -194 46 -35 26 -89 31 -124 12z"/>
<path d="M5495 3187 c-54 -26 -115 -78 -115 -98 0 -6 17 5 37 26 52 54 114 79
193 78 79 0 124 -18 183 -72 112 -103 116 -281 10 -387 -58 -58 -108 -79 -193
-79 -65 0 -82 4 -129 30 -57 32 -116 100 -126 148 -4 15 -11 27 -16 27 -29 0
38 -118 90 -159 149 -118 372 -60 448 116 25 57 22 166 -5 223 -51 105 -136
161 -252 167 -64 3 -83 0 -125 -20z"/>
<path d="M5710 3028 c-24 -40 -25 -52 -5 -68 20 -17 20 -20 -17 -84 -28 -48
-37 -56 -59 -54 -32 3 -53 -13 -70 -53 -10 -26 -10 -32 2 -40 24 -15 85 -10
101 9 25 28 138 227 138 243 0 23 -39 79 -55 79 -8 0 -24 -15 -35 -32z m70
-45 c0 -24 -71 -158 -117 -220 -43 -58 -118 -37 -79 22 13 20 22 23 45 19 27
-6 31 -2 65 56 40 68 42 77 22 106 -13 18 -13 24 6 54 l20 34 19 -23 c11 -13
19 -34 19 -48z"/>
<path d="M4495 2735 c-27 -14 -75 -34 -107 -45 -56 -21 -56 -21 -170 -188
-118 -172 -182 -270 -250 -380 -32 -52 -38 -71 -38 -117 0 -73 21 -123 123
-298 48 -81 87 -149 87 -152 0 -2 -10 0 -22 5 -13 5 -86 18 -163 29 -77 10
-147 22 -155 25 -11 4 -16 0 -17 -12 -1 -10 -8 -45 -16 -78 -8 -32 -18 -76
-21 -96 l-7 -38 254 0 c233 0 257 -2 278 -19 l23 -18 -12 -189 c-17 -267 -17
-270 17 -313 26 -33 29 -46 36 -144 l7 -108 -43 -66 -44 -67 -10 36 -10 36
-24 -19 c-16 -13 -24 -31 -25 -52 l-1 -32 -747 -3 -748 -2 27 55 c27 54 43 69
43 40 0 -12 16 -15 83 -15 99 1 128 15 107 54 -10 20 -10 31 -1 54 7 17 22
182 35 379 12 192 25 354 29 361 15 23 86 32 271 32 l188 0 -7 27 c-3 14 -20
59 -37 99 l-30 73 -27 -13 c-14 -8 -85 -32 -158 -55 -184 -58 -187 -62 -283
-348 -40 -120 -76 -221 -79 -226 -4 -4 -24 57 -45 135 -46 170 -53 185 -108
233 -37 31 -44 34 -47 18 -13 -64 -151 -30 -237 58 l-38 39 32 0 c46 0 51 23
13 63 -20 19 -39 54 -49 89 -12 39 -22 58 -33 58 -23 0 -49 33 -49 63 0 30 24
57 51 57 14 0 19 -7 19 -30 0 -33 11 -38 30 -15 7 8 18 15 24 15 24 0 79 49
123 110 l45 62 76 -7 c88 -8 108 -16 117 -47 4 -13 18 -39 31 -59 14 -21 25
-52 26 -75 1 -21 3 -33 6 -26 2 7 8 10 12 7 23 -14 100 127 100 182 0 42 -48
188 -74 228 -21 33 -56 46 -93 36 -24 -7 -34 -2 -72 30 -53 47 -94 56 -180 40
-82 -15 -137 -39 -183 -80 -65 -57 -72 -84 -78 -291 -5 -163 -8 -191 -28 -234
-21 -46 -21 -51 -6 -73 9 -14 38 -39 65 -55 27 -17 49 -32 49 -34 0 -1 -26 0
-59 3 -96 9 -153 -10 -207 -70 -99 -111 -123 -209 -131 -539 l-6 -218 -111 -2
c-61 -2 -172 -3 -247 -3 -143 0 -169 -7 -169 -46 0 -10 8 -23 18 -28 13 -8 5
-10 -35 -11 -31 0 -57 5 -66 14 -22 23 -297 552 -297 573 0 23 399 482 436
501 21 11 85 14 305 13 268 -2 279 -1 279 17 0 45 -25 51 -211 53 -95 1 -212
-1 -257 -6 -58 -5 -87 -4 -95 4 -18 18 -55 13 -71 -11 -8 -12 -13 -24 -11 -28
7 -11 -408 -475 -437 -487 -22 -9 -28 -19 -28 -42 0 -18 8 -35 18 -43 25 -17
316 -574 307 -588 -4 -6 -80 -10 -212 -10 l-205 0 -28 -30 -28 -30 -136 0
c-123 0 -138 -2 -156 -20 -24 -24 -25 -34 -4 -54 12 -13 39 -16 130 -16 101 0
116 -2 134 -20 46 -46 8 -90 -79 -90 -49 0 -65 -5 -87 -24 -39 -33 -39 -89 0
-122 l27 -24 2464 0 2464 0 27 24 c39 33 39 89 0 122 -21 19 -39 24 -82 24
-56 0 -94 22 -94 55 0 8 9 24 20 35 18 18 33 20 173 20 157 0 177 5 177 41 0
33 -29 49 -86 49 l-54 0 0 100 0 101 -72 -3 -73 -3 -19 -38 c-36 -75 -104 -76
-136 -2 -19 44 -21 45 -63 45 -24 0 -85 3 -135 6 l-92 7 0 -52 0 -51 -40 0
c-33 0 -42 -4 -49 -24 -17 -43 -72 -41 -86 3 -7 22 -79 31 -257 31 l-118 0 0
30 c0 25 -4 30 -25 30 -15 0 -25 6 -25 15 0 8 11 22 25 31 22 14 25 23 25 75
0 57 -1 59 -26 59 -32 0 -30 30 4 45 19 9 22 17 22 70 0 34 5 66 12 73 8 8 47
12 110 12 91 0 98 1 98 20 0 17 -7 20 -45 20 -34 0 -45 4 -45 16 0 29 21 56
56 70 l34 14 0 103 c0 67 4 107 12 115 8 8 54 12 140 12 70 0 128 4 128 8 0 5
-12 66 -26 137 l-26 127 59 209 c32 115 60 209 63 209 10 0 200 -361 200 -379
0 -7 -40 -78 -90 -158 -49 -79 -90 -146 -90 -149 0 -2 47 -4 104 -4 l104 0 71
88 c95 116 126 179 126 257 0 67 -26 132 -202 495 -91 188 -96 197 -181 285
-48 49 -125 130 -170 179 -49 53 -86 86 -91 80 -5 -5 -71 -85 -147 -179 -146
-181 -167 -217 -262 -453 -27 -68 -52 -125 -54 -128 -5 -5 11 90 74 416 39
204 56 260 99 322 11 14 19 29 19 32 0 13 -37 5 -85 -19z m-226 -982 c1 -45
-3 -84 -7 -87 -8 -5 -132 277 -132 300 0 6 26 47 58 90 l57 79 12 -150 c6 -82
12 -187 12 -232z m-2311 -1180 l3 -33 -120 0 c-112 0 -120 1 -126 20 -13 42 9
51 129 48 l111 -3 3 -32z m-122 -74 c14 -15 16 -24 7 -37 -9 -15 -37 -17 -242
-20 l-231 -2 0 40 0 40 223 0 c213 0 225 -1 243 -21z"/>
<path d="M2880 2650 c-19 -19 -20 -33 -20 -204 0 -124 4 -187 11 -192 6 -3 36
19 68 50 l57 56 177 0 c226 0 217 -6 217 153 0 168 19 157 -261 157 -216 0
-230 -1 -249 -20z m474 -6 c13 -12 16 -39 16 -126 0 -156 11 -148 -214 -148
l-180 0 -48 -47 -48 -47 0 176 c0 147 3 179 16 192 13 14 48 16 229 16 181 0
216 -2 229 -16z"/>
<path d="M3433 2333 c-23 -3 -43 -16 -67 -45 -27 -31 -39 -38 -56 -33 -12 4
-27 1 -36 -6 -22 -18 -58 -93 -84 -175 l-23 -71 33 -59 c18 -32 41 -75 52 -95
26 -48 65 -95 71 -89 3 3 7 30 9 60 3 30 10 65 16 77 7 12 12 28 12 36 0 8 11
22 24 31 14 8 27 25 31 36 7 21 7 21 27 3 17 -15 38 -18 132 -19 61 0 116 -1
121 -2 13 -3 40 -55 54 -109 16 -58 28 -61 50 -12 l19 43 10 -35 c6 -19 11
-26 11 -17 1 9 -4 28 -10 41 -8 18 -7 37 5 77 30 100 16 192 -40 265 -57 75
-211 117 -361 98z"/>
<path d="M5962 1959 c-69 -34 -115 -111 -177 -296 -15 -46 -28 -83 -29 -83 -1
0 -2 39 -2 88 -1 99 -18 151 -59 178 -24 16 -29 16 -59 1 -68 -32 -93 -142
-95 -414 l-1 -73 34 0 c19 0 37 -4 41 -10 3 -5 6 -88 6 -185 1 -96 4 -175 8
-175 4 0 11 4 17 9 5 5 101 60 214 121 113 61 222 128 242 148 49 47 66 94 44
127 -34 52 -137 37 -239 -34 -31 -22 -57 -39 -57 -36 0 2 30 48 67 102 106
157 183 335 183 425 0 16 -6 43 -13 61 -26 61 -65 75 -125 46z"/>
</g>
</svg>
