<svg id="svg" version="1.1" xmlns="http://www.w3.org/2000/svg" xmlns:xlink="http://www.w3.org/1999/xlink" width="400" height="400" viewBox="0, 0, 400,400"><g id="svgg"><path id="path0" d="M318.319 132.294 C 317.036 134.971,319.233 134.857,273.673 134.601 C 207.153 134.226,117.446 134.252,105.800 134.649 C 94.691 135.027,94.109 135.122,92.250 136.854 C 91.809 137.264,91.157 137.600,90.801 137.600 C 90.069 137.600,87.600 139.861,87.600 140.531 C 87.600 140.770,86.941 141.642,86.135 142.467 L 84.669 143.968 84.635 150.731 L 84.600 157.493 87.000 159.941 C 88.320 161.287,89.631 162.391,89.914 162.395 C 90.505 162.401,92.091 163.352,93.741 164.692 C 94.369 165.201,95.719 165.989,96.741 166.443 C 97.763 166.897,99.230 167.931,100.000 168.741 C 100.770 169.551,101.940 170.476,102.600 170.795 C 103.260 171.115,104.545 172.043,105.456 172.856 C 106.367 173.670,108.045 174.666,109.183 175.068 C 110.521 175.541,111.610 176.265,112.258 177.114 C 112.810 177.837,114.173 178.868,115.287 179.405 C 116.401 179.942,117.574 180.757,117.895 181.215 C 118.216 181.673,119.496 182.520,120.739 183.097 C 121.983 183.674,123.738 184.812,124.640 185.626 C 125.541 186.439,126.939 187.418,127.744 187.800 C 128.550 188.183,129.632 188.998,130.148 189.611 C 130.664 190.225,132.029 191.058,133.181 191.463 C 134.481 191.921,136.027 192.920,137.261 194.100 C 138.353 195.145,139.491 196.000,139.789 196.000 C 140.087 196.000,140.972 196.622,141.755 197.383 C 142.538 198.143,144.358 199.334,145.800 200.029 C 147.241 200.725,148.640 201.603,148.910 201.982 C 149.179 202.361,150.300 203.168,151.400 203.774 C 152.500 204.381,154.057 205.553,154.859 206.380 C 155.661 207.207,156.846 207.989,157.491 208.118 C 158.137 208.247,159.248 208.898,159.961 209.563 C 160.673 210.229,162.279 211.350,163.528 212.054 C 164.778 212.759,166.539 214.004,167.442 214.822 C 168.345 215.640,169.504 216.443,170.018 216.606 C 170.532 216.769,171.474 217.390,172.111 217.985 C 172.748 218.580,174.289 219.592,175.535 220.234 C 176.781 220.875,178.461 222.076,179.270 222.901 C 180.078 223.727,181.518 224.749,182.470 225.173 C 183.421 225.596,184.588 226.369,185.063 226.890 C 185.538 227.410,186.782 228.277,187.828 228.814 C 188.874 229.352,190.353 230.398,191.114 231.137 C 191.876 231.877,193.084 232.727,193.799 233.025 C 194.514 233.324,195.742 234.193,196.527 234.956 C 197.313 235.719,198.772 236.704,199.770 237.146 C 200.768 237.587,202.024 238.388,202.561 238.924 C 204.029 240.393,205.722 241.515,206.924 241.817 C 207.516 241.965,208.000 242.213,208.000 242.367 C 208.000 242.931,210.513 245.200,211.138 245.200 C 211.838 245.200,217.276 247.227,217.600 247.610 C 218.363 248.509,221.012 248.987,225.252 248.990 C 230.063 248.993,230.277 248.939,235.600 246.419 C 235.930 246.262,237.055 245.885,238.100 245.580 C 239.319 245.224,240.516 244.482,241.435 243.511 C 242.224 242.679,243.349 241.882,243.935 241.741 C 245.161 241.444,246.778 240.402,248.856 238.567 C 249.656 237.860,250.736 237.148,251.256 236.985 C 251.775 236.821,253.074 235.902,254.143 234.944 C 255.212 233.985,256.295 233.200,256.551 233.200 C 256.806 233.200,257.875 232.489,258.927 231.620 C 259.979 230.751,261.803 229.568,262.981 228.992 C 264.159 228.416,265.684 227.327,266.371 226.572 C 267.058 225.817,267.902 225.200,268.248 225.200 C 268.964 225.200,270.905 223.910,272.441 222.414 C 273.014 221.856,274.462 220.910,275.660 220.311 C 276.857 219.712,278.227 218.773,278.703 218.225 C 279.180 217.677,280.463 216.776,281.555 216.223 C 282.648 215.669,284.049 214.744,284.671 214.166 C 285.292 213.589,286.700 212.662,287.800 212.107 C 288.900 211.552,290.561 210.401,291.491 209.549 C 292.421 208.697,293.449 208.000,293.774 208.000 C 294.100 208.000,295.108 207.294,296.016 206.431 C 296.923 205.568,298.685 204.376,299.932 203.782 C 301.180 203.188,302.674 202.184,303.254 201.550 C 303.833 200.916,304.965 200.123,305.770 199.787 C 306.575 199.451,307.810 198.622,308.516 197.946 C 309.222 197.270,310.665 196.277,311.723 195.740 C 312.780 195.203,314.220 194.209,314.923 193.532 C 315.625 192.854,316.972 191.966,317.916 191.557 C 318.859 191.149,320.119 190.285,320.716 189.637 C 321.312 188.990,323.058 187.795,324.596 186.982 C 326.133 186.169,327.603 185.202,327.862 184.832 C 328.121 184.463,329.171 183.729,330.195 183.203 C 331.219 182.676,332.539 181.764,333.128 181.175 C 333.718 180.586,335.100 179.616,336.200 179.020 C 337.300 178.423,338.830 177.449,339.600 176.856 C 341.585 175.326,343.099 174.400,343.617 174.400 C 343.862 174.400,344.724 173.718,345.531 172.885 C 346.339 172.052,347.630 171.069,348.400 170.701 C 349.170 170.333,350.430 169.484,351.200 168.816 C 351.970 168.147,353.543 167.138,354.696 166.573 C 355.849 166.007,357.528 164.838,358.429 163.973 C 359.329 163.108,360.378 162.400,360.761 162.400 C 361.143 162.400,362.181 161.780,363.066 161.022 C 364.328 159.942,365.076 159.623,366.524 159.548 C 368.947 159.422,368.840 160.005,368.781 147.328 C 368.725 135.411,368.841 135.936,366.213 135.691 C 364.264 135.509,364.462 135.732,364.347 133.588 C 364.213 131.084,365.616 131.228,341.124 131.208 L 318.849 131.189 318.319 132.294 " stroke="none" fill="#54e3fc" fill-rule="evenodd"></path><path id="path1" d="M332.342 269.007 C 330.313 270.109,330.244 270.763,330.014 291.000 C 329.800 309.798,329.800 309.800,328.883 311.086 C 327.376 313.199,327.464 313.193,293.000 313.222 C 257.082 313.253,256.266 313.303,255.137 315.541 C 254.313 317.174,253.226 318.400,252.602 318.400 C 251.276 318.400,250.931 329.983,251.703 348.533 C 251.812 351.143,251.183 352.000,249.157 352.000 C 248.113 352.000,248.070 352.079,248.156 353.863 C 248.248 355.772,249.039 356.530,250.771 356.367 C 252.852 356.171,253.195 356.360,252.774 357.469 C 252.550 358.057,252.449 358.752,252.550 359.013 C 252.771 359.590,254.400 360.073,254.400 359.563 C 254.400 359.363,254.580 359.200,254.800 359.200 C 255.020 359.200,255.200 359.470,255.200 359.800 C 255.200 360.130,255.380 360.400,255.600 360.400 C 255.820 360.400,256.003 360.175,256.006 359.900 C 256.011 359.519,256.085 359.514,256.316 359.878 C 256.483 360.141,257.156 360.343,257.810 360.328 C 258.465 360.312,273.455 360.322,291.123 360.350 L 323.245 360.400 323.123 378.400 C 323.055 388.300,323.106 396.400,323.234 396.400 C 323.363 396.400,323.396 397.210,323.308 398.200 L 323.147 400.000 333.373 400.000 L 343.600 400.000 343.600 399.000 C 343.600 398.190,343.809 397.989,344.700 397.941 C 345.305 397.908,346.099 397.863,346.464 397.841 C 347.308 397.789,347.789 397.308,347.841 396.464 C 347.863 396.099,347.908 395.305,347.941 394.700 C 347.997 393.655,348.099 393.600,350.000 393.600 L 352.000 393.600 352.000 391.600 C 352.000 389.747,352.073 389.596,353.000 389.550 C 353.550 389.523,354.360 389.455,354.800 389.400 C 355.240 389.345,355.780 389.278,356.000 389.250 C 356.220 389.223,356.400 388.390,356.400 387.400 L 356.400 385.600 358.200 385.600 C 359.190 385.600,360.011 385.555,360.025 385.500 C 360.039 385.445,360.149 384.500,360.269 383.400 C 360.536 380.966,360.320 381.180,362.547 381.136 L 364.400 381.099 364.400 379.149 L 364.400 377.200 366.357 377.200 C 368.551 377.200,368.800 376.912,368.800 374.367 L 368.800 372.800 370.500 372.753 C 371.435 372.727,372.335 372.727,372.500 372.753 C 372.665 372.779,372.779 372.665,372.753 372.500 C 372.727 372.335,372.727 371.435,372.753 370.500 L 372.800 368.800 374.367 368.800 C 376.912 368.800,377.200 368.551,377.200 366.357 L 377.200 364.400 379.149 364.400 L 381.099 364.400 381.136 362.547 C 381.180 360.320,380.966 360.536,383.400 360.269 C 384.500 360.149,385.424 360.039,385.453 360.025 C 385.482 360.011,385.516 359.261,385.528 358.358 C 385.556 356.357,385.523 356.392,387.443 356.328 C 389.306 356.266,389.586 355.924,389.594 353.700 L 389.600 352.000 391.525 352.000 L 393.451 352.000 393.548 350.110 C 393.666 347.833,393.546 347.970,395.531 347.869 C 397.367 347.777,397.779 347.491,397.849 346.265 C 397.877 345.789,397.922 344.995,397.949 344.500 C 397.988 343.820,398.245 343.600,399.000 343.600 L 400.000 343.600 400.000 333.600 L 400.000 323.600 398.900 323.553 L 397.800 323.505 399.000 323.200 L 400.200 322.895 399.100 322.847 C 398.194 322.808,397.989 322.606,397.939 321.700 C 397.906 321.095,397.836 320.420,397.785 320.200 C 397.734 319.980,397.672 319.598,397.646 319.352 C 397.621 319.106,397.285 318.905,396.900 318.907 C 393.526 318.920,393.600 318.967,393.600 316.800 L 393.600 314.800 391.600 314.800 C 389.697 314.800,389.598 314.747,389.549 313.700 C 389.398 310.404,389.535 310.633,387.658 310.538 C 385.547 310.430,385.704 310.583,385.455 308.396 C 385.342 307.408,385.239 306.578,385.225 306.551 C 385.211 306.524,384.366 306.485,383.347 306.464 C 381.100 306.419,381.267 306.585,381.148 304.290 C 381.095 303.250,380.949 302.382,380.825 302.359 C 380.701 302.337,379.904 302.256,379.053 302.179 C 377.223 302.014,377.162 301.968,377.140 300.745 C 377.093 298.209,376.915 298.000,374.792 298.000 L 372.800 298.000 372.753 296.500 C 372.727 295.675,372.740 294.751,372.783 294.446 C 372.831 294.098,372.630 293.980,372.243 294.128 C 371.903 294.258,371.519 294.193,371.389 293.983 C 370.988 293.333,369.274 293.560,368.723 294.337 C 367.039 296.710,364.746 296.556,362.207 293.900 C 361.103 292.745,359.795 291.535,359.300 291.212 C 358.805 290.888,358.400 290.462,358.400 290.265 C 358.400 289.982,351.450 283.030,342.600 274.460 C 342.160 274.034,341.350 273.131,340.800 272.454 C 340.250 271.778,339.590 271.219,339.332 271.212 C 339.075 271.205,338.271 270.570,337.544 269.800 C 336.069 268.236,334.267 267.961,332.342 269.007 " stroke="none" fill="#ca64e9" fill-rule="evenodd"></path><path id="path2" d="M36.900 48.415 C 36.405 48.613,35.969 49.095,35.932 49.487 C 35.894 49.879,35.823 50.470,35.774 50.800 C 35.725 51.130,35.666 51.619,35.643 51.887 C 35.619 52.156,35.361 52.283,35.069 52.171 C 34.404 51.916,32.717 52.540,31.922 53.335 C 31.084 54.173,30.848 77.432,31.677 77.526 C 31.965 77.559,32.955 77.649,33.878 77.726 C 34.801 77.803,35.791 78.059,36.078 78.296 C 36.365 78.532,37.597 79.166,38.815 79.703 C 40.033 80.241,41.326 81.132,41.687 81.684 C 42.049 82.236,43.302 83.188,44.472 83.799 C 45.643 84.411,47.320 85.494,48.200 86.206 C 49.080 86.918,50.430 87.818,51.200 88.206 C 51.970 88.594,53.112 89.443,53.738 90.092 C 54.364 90.741,55.534 91.543,56.338 91.873 C 57.142 92.203,58.340 92.982,59.000 93.605 C 59.660 94.228,61.220 95.263,62.466 95.905 C 63.713 96.547,65.583 97.821,66.623 98.736 C 67.662 99.651,68.694 100.400,68.915 100.400 C 69.136 100.400,70.086 101.030,71.026 101.800 C 71.966 102.570,72.929 103.200,73.167 103.200 C 73.405 103.200,73.600 103.343,73.600 103.518 C 73.600 103.693,74.365 104.153,75.300 104.541 C 76.235 104.929,77.780 105.956,78.734 106.823 C 79.688 107.691,80.790 108.400,81.184 108.400 C 81.577 108.400,82.670 109.105,83.612 109.966 C 84.554 110.827,85.792 111.772,86.362 112.065 C 86.933 112.359,87.490 112.689,87.600 112.799 C 87.710 112.910,88.430 113.348,89.200 113.773 C 89.970 114.198,90.810 114.837,91.067 115.193 C 91.323 115.549,92.403 116.279,93.467 116.817 C 94.530 117.354,95.913 118.294,96.539 118.905 C 97.165 119.516,98.785 120.561,100.139 121.226 C 101.493 121.892,102.780 122.659,103.000 122.932 C 103.570 123.638,106.036 125.022,107.281 125.334 C 107.863 125.480,108.849 126.029,109.473 126.555 C 110.097 127.080,111.236 127.692,112.004 127.915 C 116.076 129.099,119.353 130.781,118.754 131.379 C 118.466 131.667,113.961 132.792,112.816 132.862 C 112.257 132.896,113.330 133.058,115.200 133.222 C 119.310 133.583,231.827 133.607,235.800 133.248 L 238.600 132.995 236.648 132.698 C 233.733 132.255,231.561 131.522,231.713 131.033 C 231.829 130.660,232.753 130.139,236.495 128.335 C 236.877 128.151,237.480 128.000,237.837 128.000 C 238.193 128.000,239.230 127.499,240.142 126.887 C 241.054 126.276,242.639 125.457,243.665 125.068 C 244.691 124.679,245.951 123.943,246.465 123.432 C 246.979 122.922,248.570 121.916,250.000 121.197 C 251.430 120.478,253.390 119.194,254.356 118.345 C 255.322 117.495,256.320 116.800,256.573 116.800 C 256.826 116.800,257.926 115.991,259.017 115.002 C 260.108 114.013,261.238 113.203,261.528 113.202 C 262.119 113.200,264.916 111.335,266.309 110.013 C 266.810 109.539,267.877 108.876,268.682 108.540 C 269.487 108.203,270.620 107.420,271.200 106.800 C 271.780 106.179,273.458 105.033,274.928 104.253 C 276.399 103.472,278.061 102.375,278.622 101.815 C 279.182 101.254,280.335 100.441,281.183 100.009 C 282.031 99.576,283.056 98.802,283.462 98.288 C 283.868 97.774,285.190 96.869,286.400 96.277 C 287.610 95.685,289.080 94.796,289.666 94.301 C 290.253 93.805,291.105 93.089,291.560 92.709 C 292.015 92.329,292.856 91.901,293.429 91.757 C 294.002 91.613,295.130 90.820,295.935 89.993 C 296.741 89.167,298.190 88.094,299.156 87.609 C 300.122 87.123,301.112 86.559,301.356 86.356 C 301.600 86.152,302.233 85.628,302.763 85.191 C 303.292 84.755,304.681 83.930,305.848 83.359 C 307.016 82.788,308.069 82.014,308.187 81.641 C 308.306 81.267,309.752 80.276,311.401 79.439 C 313.051 78.601,314.400 77.755,314.400 77.558 C 314.400 77.361,315.280 77.200,316.357 77.200 C 318.915 77.200,318.870 77.428,318.765 65.108 C 318.677 54.807,318.556 53.057,317.954 53.428 C 317.759 53.549,317.599 53.502,317.597 53.324 C 317.593 52.946,315.680 52.000,314.920 52.000 C 314.377 52.000,314.342 51.895,314.285 50.100 C 314.245 48.829,313.188 47.780,312.709 48.534 C 312.489 48.879,312.411 48.870,312.406 48.501 C 312.399 47.895,38.417 47.809,36.900 48.415 M330.518 266.536 C 329.675 266.955,328.649 268.696,327.593 271.500 C 327.323 272.215,326.915 272.800,326.686 272.800 C 326.400 272.800,326.351 278.048,326.529 289.573 L 326.788 306.346 325.033 308.230 L 323.279 310.113 316.979 310.031 C 312.134 309.967,310.604 310.069,310.354 310.474 C 310.091 310.899,305.297 311.002,285.314 311.010 C 267.421 311.018,260.012 311.154,258.470 311.505 C 255.940 312.082,253.600 313.132,253.600 313.692 C 253.600 313.913,252.925 314.751,252.100 315.554 C 249.539 318.048,249.583 317.707,249.609 334.830 C 249.626 345.226,249.491 350.657,249.203 351.195 C 248.843 351.866,248.894 352.000,249.509 352.000 C 251.179 352.000,251.806 351.008,251.703 348.533 C 250.931 329.983,251.276 318.400,252.602 318.400 C 253.226 318.400,254.313 317.174,255.137 315.541 C 256.266 313.303,257.082 313.253,293.000 313.222 C 327.464 313.193,327.376 313.199,328.883 311.086 C 329.800 309.800,329.800 309.798,330.014 291.000 C 330.245 270.634,330.306 270.083,332.424 268.988 C 334.403 267.964,336.061 268.227,337.544 269.800 C 338.271 270.570,339.075 271.205,339.332 271.212 C 339.590 271.219,340.250 271.778,340.800 272.454 C 341.350 273.131,342.160 274.034,342.600 274.460 C 351.450 283.030,358.400 289.982,358.400 290.265 C 358.400 290.462,358.805 290.888,359.300 291.212 C 359.795 291.535,361.103 292.745,362.207 293.900 C 364.335 296.126,365.370 296.452,367.391 295.531 C 369.187 294.713,369.081 291.938,367.279 292.600 C 366.993 292.705,366.868 292.613,367.003 292.395 C 367.316 291.888,366.948 291.893,365.984 292.408 C 365.207 292.824,361.600 289.875,361.600 288.823 C 361.600 288.590,361.351 288.400,361.046 288.400 C 360.741 288.400,360.221 287.986,359.890 287.481 C 359.426 286.773,350.967 278.149,347.538 274.888 C 347.242 274.607,345.417 272.807,343.482 270.889 C 338.646 266.095,334.327 264.645,330.518 266.536 M322.981 375.400 C 322.981 383.760,323.034 387.237,323.099 383.126 C 323.164 379.016,323.164 372.176,323.100 367.926 C 323.035 363.677,322.982 367.040,322.981 375.400 " stroke="none" fill="#7982e9" fill-rule="evenodd"></path><path id="path3" d="M35.711 49.167 C 35.683 49.735,35.760 49.930,35.883 49.600 C 36.007 49.270,36.260 48.805,36.447 48.567 C 36.653 48.304,36.585 48.133,36.275 48.133 C 35.994 48.133,35.740 48.598,35.711 49.167 M31.562 52.646 C 31.098 53.205,31.127 53.273,31.780 53.146 C 32.194 53.066,32.609 52.775,32.700 52.500 C 32.938 51.786,32.196 51.882,31.562 52.646 M316.251 52.482 C 316.359 52.657,316.707 52.800,317.024 52.800 C 317.341 52.800,317.600 52.991,317.600 53.224 C 317.600 53.457,317.767 53.544,317.971 53.418 C 318.176 53.291,318.421 53.596,318.517 54.094 C 318.671 54.895,318.697 54.875,318.746 53.924 C 318.775 53.332,318.575 52.703,318.300 52.526 C 317.646 52.106,315.996 52.071,316.251 52.482 M318.400 76.600 C 318.400 77.053,317.911 77.200,316.400 77.200 C 315.300 77.200,314.400 77.361,314.400 77.558 C 314.400 77.755,313.051 78.601,311.401 79.439 C 309.752 80.276,308.306 81.267,308.187 81.641 C 308.069 82.014,307.016 82.788,305.848 83.359 C 304.681 83.930,303.292 84.755,302.763 85.191 C 302.233 85.628,301.600 86.152,301.356 86.356 C 301.112 86.559,300.122 87.123,299.156 87.609 C 298.190 88.094,296.741 89.167,295.935 89.993 C 295.130 90.820,294.002 91.613,293.429 91.757 C 292.856 91.901,292.015 92.329,291.560 92.709 C 291.105 93.089,290.253 93.805,289.666 94.301 C 289.080 94.796,287.610 95.685,286.400 96.277 C 285.190 96.869,283.868 97.774,283.462 98.288 C 283.056 98.802,282.031 99.576,281.183 100.009 C 280.335 100.441,279.182 101.254,278.622 101.815 C 278.061 102.375,276.399 103.472,274.928 104.253 C 273.458 105.033,271.780 106.179,271.200 106.800 C 270.620 107.420,269.487 108.203,268.682 108.540 C 267.877 108.876,266.810 109.539,266.309 110.013 C 264.916 111.335,262.119 113.200,261.528 113.202 C 261.238 113.203,260.108 114.013,259.017 115.002 C 257.926 115.991,256.826 116.800,256.573 116.800 C 256.320 116.800,255.322 117.495,254.356 118.345 C 253.390 119.194,251.430 120.478,250.000 121.197 C 248.570 121.916,246.979 122.922,246.465 123.432 C 245.951 123.943,244.691 124.679,243.665 125.068 C 242.639 125.457,241.054 126.276,240.142 126.887 C 239.230 127.499,238.193 128.000,237.837 128.000 C 237.480 128.000,236.877 128.151,236.495 128.335 C 230.215 131.362,230.242 131.548,237.155 132.807 C 242.150 133.718,314.455 133.299,316.747 132.347 L 318.800 131.493 318.800 103.747 C 318.800 88.486,318.710 76.000,318.600 76.000 C 318.490 76.000,318.400 76.270,318.400 76.600 M31.384 77.704 C 30.636 79.684,31.443 264.197,32.200 264.333 C 33.297 264.529,35.533 266.731,35.680 267.759 L 35.800 268.600 58.670 268.703 L 81.541 268.807 82.305 267.703 C 82.726 267.096,83.178 266.300,83.309 265.934 C 83.574 265.199,83.602 164.293,83.342 151.200 C 83.166 142.332,83.007 143.217,85.391 139.750 C 86.402 138.279,88.828 136.000,89.382 136.000 C 89.617 136.000,90.256 135.588,90.804 135.085 C 92.617 133.418,93.790 133.240,104.000 133.081 C 113.159 132.938,117.722 132.411,118.754 131.379 C 119.353 130.781,116.076 129.099,112.004 127.915 C 111.236 127.692,110.097 127.080,109.473 126.555 C 108.849 126.029,107.863 125.480,107.281 125.334 C 106.036 125.022,103.570 123.638,103.000 122.932 C 102.780 122.659,101.493 121.892,100.139 121.226 C 98.785 120.561,97.165 119.516,96.539 118.905 C 95.913 118.294,94.530 117.354,93.467 116.817 C 92.403 116.279,91.323 115.549,91.067 115.193 C 90.810 114.837,89.970 114.198,89.200 113.773 C 88.430 113.348,87.710 112.910,87.600 112.799 C 87.490 112.689,86.933 112.359,86.362 112.065 C 85.792 111.772,84.554 110.827,83.612 109.966 C 82.670 109.105,81.577 108.400,81.184 108.400 C 80.790 108.400,79.688 107.691,78.734 106.823 C 77.780 105.956,76.235 104.929,75.300 104.541 C 74.365 104.153,73.600 103.693,73.600 103.518 C 73.600 103.343,73.405 103.200,73.167 103.200 C 72.929 103.200,71.966 102.570,71.026 101.800 C 70.086 101.030,69.136 100.400,68.915 100.400 C 68.694 100.400,67.662 99.651,66.623 98.736 C 65.583 97.821,63.713 96.547,62.466 95.905 C 61.220 95.263,59.660 94.228,59.000 93.605 C 58.340 92.982,57.142 92.203,56.338 91.873 C 55.534 91.543,54.364 90.741,53.738 90.092 C 53.112 89.443,51.970 88.594,51.200 88.206 C 50.430 87.818,49.080 86.918,48.200 86.206 C 47.320 85.494,45.643 84.411,44.472 83.799 C 43.302 83.188,42.051 82.239,41.692 81.691 C 41.332 81.143,39.926 80.195,38.566 79.585 C 37.206 78.975,35.987 78.303,35.857 78.092 C 35.726 77.881,35.142 77.760,34.558 77.824 C 33.974 77.888,33.063 77.776,32.534 77.575 C 31.853 77.316,31.517 77.354,31.384 77.704 M361.600 288.978 C 361.600 289.915,365.273 292.789,365.984 292.408 C 366.886 291.926,367.320 291.882,367.062 292.300 C 366.960 292.465,367.309 292.626,367.838 292.658 C 368.422 292.693,368.800 292.496,368.800 292.158 C 368.800 291.751,368.227 291.600,366.688 291.600 C 364.804 291.600,364.417 291.445,363.088 290.154 C 362.270 289.359,361.600 288.830,361.600 288.978 M326.249 301.032 C 326.052 304.950,325.796 306.762,325.328 307.532 C 324.694 308.575,324.703 308.573,325.739 307.438 C 326.776 306.302,326.800 306.154,326.800 300.938 C 326.800 294.108,326.595 294.143,326.249 301.032 M323.686 308.874 C 323.372 309.188,321.143 309.323,316.712 309.296 C 273.006 309.033,260.486 309.166,259.142 309.903 C 258.404 310.309,257.015 310.870,256.055 311.150 C 253.965 311.760,250.915 314.684,249.655 317.286 C 248.825 319.000,248.800 319.527,248.800 335.046 C 248.800 346.953,248.677 351.163,248.320 351.520 C 247.963 351.877,247.959 352.000,248.306 352.000 C 249.497 352.000,249.633 350.211,249.609 334.830 C 249.583 317.707,249.539 318.048,252.100 315.554 C 252.925 314.751,253.600 313.913,253.600 313.692 C 253.600 313.132,255.940 312.082,258.470 311.505 C 260.012 311.154,267.421 311.018,285.314 311.010 C 305.297 311.002,310.091 310.899,310.354 310.474 C 310.604 310.070,312.132 309.967,316.969 310.030 C 323.011 310.110,325.388 309.654,324.350 308.616 C 324.238 308.505,323.939 308.621,323.686 308.874 M252.598 359.203 C 252.320 359.652,253.492 360.242,253.884 359.849 C 254.021 359.712,253.788 359.587,253.367 359.572 C 252.634 359.545,252.636 359.528,253.400 359.200 C 254.052 358.920,254.075 358.851,253.524 358.828 C 253.152 358.813,252.735 358.981,252.598 359.203 M254.400 359.800 C 254.400 360.130,254.580 360.400,254.800 360.400 C 255.020 360.400,255.200 360.130,255.200 359.800 C 255.200 359.470,255.020 359.200,254.800 359.200 C 254.580 359.200,254.400 359.470,254.400 359.800 M322.914 392.200 C 322.917 393.300,322.995 393.703,323.087 393.095 C 323.179 392.486,323.177 391.586,323.082 391.095 C 322.987 390.603,322.911 391.100,322.914 392.200 " stroke="none" fill="#525abf" fill-rule="evenodd"></path><path id="path4" d="M316.410 132.477 C 314.663 133.225,311.939 133.248,204.092 133.412 C 87.098 133.589,90.800 133.531,90.800 135.197 C 90.800 135.365,90.252 135.730,89.582 136.007 C 88.060 136.638,85.068 140.017,83.977 142.339 C 83.211 143.967,83.165 144.640,83.330 151.746 C 83.428 155.956,83.517 183.247,83.528 212.394 C 83.550 268.843,83.612 266.897,81.758 268.435 C 81.172 268.921,80.886 343.131,81.459 345.996 C 81.696 347.182,82.486 347.686,84.305 347.814 C 85.511 347.898,85.611 348.040,85.676 349.764 C 85.712 350.728,85.978 351.374,86.439 351.621 C 87.571 352.227,247.713 352.127,248.320 351.520 C 248.677 351.163,248.800 346.953,248.800 335.046 C 248.800 319.527,248.825 319.000,249.655 317.286 C 250.915 314.684,253.965 311.760,256.055 311.150 C 257.015 310.870,258.404 310.309,259.142 309.903 C 260.464 309.178,278.594 308.989,316.478 309.306 C 326.858 309.393,326.152 310.811,326.336 289.500 C 326.418 279.972,326.634 272.800,326.840 272.800 C 327.038 272.800,327.200 272.609,327.200 272.375 C 327.200 271.161,329.688 266.958,330.678 266.500 C 332.380 265.713,336.969 265.865,338.716 266.765 C 339.532 267.186,345.683 272.946,352.385 279.565 L 364.569 291.600 366.685 291.600 L 368.800 291.600 368.794 225.100 C 368.791 188.525,368.656 158.789,368.494 159.020 C 368.332 159.250,367.400 159.492,366.421 159.556 C 365.077 159.644,364.253 160.006,363.049 161.036 C 362.173 161.786,361.143 162.400,360.761 162.400 C 360.378 162.400,359.329 163.108,358.429 163.973 C 357.528 164.838,355.849 166.007,354.696 166.573 C 353.543 167.138,351.970 168.147,351.200 168.816 C 350.430 169.484,349.170 170.333,348.400 170.701 C 347.630 171.069,346.339 172.052,345.531 172.885 C 344.724 173.718,343.862 174.400,343.617 174.400 C 343.099 174.400,341.585 175.326,339.600 176.856 C 338.830 177.449,337.300 178.423,336.200 179.020 C 335.100 179.616,333.718 180.586,333.128 181.175 C 332.539 181.764,331.219 182.676,330.195 183.203 C 329.171 183.729,328.121 184.463,327.862 184.832 C 327.603 185.202,326.133 186.169,324.596 186.982 C 323.058 187.795,321.312 188.990,320.716 189.637 C 320.119 190.285,318.859 191.149,317.916 191.557 C 316.972 191.966,315.625 192.854,314.923 193.532 C 314.220 194.209,312.780 195.203,311.723 195.740 C 310.665 196.277,309.222 197.270,308.516 197.946 C 307.810 198.622,306.575 199.451,305.770 199.787 C 304.965 200.123,303.833 200.916,303.254 201.550 C 302.674 202.184,301.180 203.188,299.932 203.782 C 298.685 204.376,296.923 205.568,296.016 206.431 C 295.108 207.294,294.100 208.000,293.774 208.000 C 293.449 208.000,292.421 208.697,291.491 209.549 C 290.561 210.401,288.900 211.552,287.800 212.107 C 286.700 212.662,285.292 213.589,284.671 214.166 C 284.049 214.744,282.648 215.669,281.555 216.223 C 280.463 216.776,279.180 217.677,278.703 218.225 C 278.227 218.773,276.857 219.712,275.660 220.311 C 274.462 220.910,273.014 221.856,272.441 222.414 C 270.905 223.910,268.964 225.200,268.248 225.200 C 267.902 225.200,267.058 225.817,266.371 226.572 C 265.684 227.327,264.159 228.416,262.981 228.992 C 261.803 229.568,259.979 230.751,258.927 231.620 C 257.875 232.489,256.806 233.200,256.551 233.200 C 256.295 233.200,255.212 233.985,254.143 234.944 C 253.074 235.902,251.775 236.821,251.256 236.985 C 250.736 237.148,249.656 237.860,248.856 238.567 C 246.778 240.402,245.161 241.444,243.935 241.741 C 243.349 241.882,242.224 242.679,241.435 243.511 C 240.516 244.482,239.319 245.224,238.100 245.580 C 237.055 245.885,235.930 246.262,235.600 246.419 C 230.277 248.939,230.063 248.993,225.252 248.990 C 221.012 248.987,218.363 248.509,217.600 247.610 C 217.276 247.227,211.838 245.200,211.138 245.200 C 210.513 245.200,208.000 242.931,208.000 242.367 C 208.000 242.213,207.516 241.965,206.924 241.817 C 205.722 241.515,204.029 240.393,202.561 238.924 C 202.024 238.388,200.768 237.587,199.770 237.146 C 198.772 236.704,197.313 235.719,196.527 234.956 C 195.742 234.193,194.514 233.324,193.799 233.025 C 193.084 232.727,191.876 231.877,191.114 231.137 C 190.353 230.398,188.874 229.352,187.828 228.814 C 186.782 228.277,185.538 227.410,185.063 226.890 C 184.588 226.369,183.421 225.596,182.470 225.173 C 181.518 224.749,180.078 223.727,179.270 222.901 C 178.461 222.076,176.781 220.875,175.535 220.234 C 174.289 219.592,172.748 218.580,172.111 217.985 C 171.474 217.390,170.532 216.769,170.018 216.606 C 169.504 216.443,168.345 215.640,167.442 214.822 C 166.539 214.004,164.778 212.759,163.528 212.054 C 162.279 211.350,160.673 210.229,159.961 209.563 C 159.248 208.898,158.137 208.247,157.491 208.118 C 156.846 207.989,155.661 207.207,154.859 206.380 C 154.057 205.553,152.500 204.381,151.400 203.774 C 150.300 203.168,149.179 202.361,148.910 201.982 C 148.640 201.603,147.241 200.725,145.800 200.029 C 144.358 199.334,142.538 198.143,141.755 197.383 C 140.972 196.622,140.087 196.000,139.789 196.000 C 139.491 196.000,138.353 195.145,137.261 194.100 C 136.027 192.920,134.481 191.921,133.181 191.463 C 132.029 191.058,130.664 190.225,130.148 189.611 C 129.632 188.998,128.550 188.183,127.744 187.800 C 126.939 187.418,125.541 186.439,124.640 185.626 C 123.738 184.812,121.983 183.674,120.739 183.097 C 119.496 182.520,118.216 181.673,117.895 181.215 C 117.574 180.757,116.401 179.942,115.287 179.405 C 114.173 178.868,112.810 177.837,112.258 177.114 C 111.610 176.265,110.521 175.541,109.183 175.068 C 108.045 174.666,106.367 173.670,105.456 172.856 C 104.545 172.043,103.260 171.115,102.600 170.795 C 101.940 170.476,100.770 169.551,100.000 168.741 C 99.230 167.931,97.763 166.897,96.741 166.443 C 95.719 165.989,94.369 165.201,93.741 164.692 C 92.091 163.352,90.505 162.401,89.914 162.395 C 89.631 162.391,88.320 161.287,87.000 159.941 L 84.600 157.493 84.635 150.731 L 84.669 143.968 86.135 142.467 C 86.941 141.642,87.600 140.770,87.600 140.531 C 87.600 139.861,90.069 137.600,90.801 137.600 C 91.157 137.600,91.809 137.264,92.250 136.854 C 94.109 135.122,94.691 135.027,105.800 134.649 C 117.543 134.249,208.212 134.227,273.400 134.608 C 316.117 134.858,316.305 134.852,317.835 133.161 C 318.917 131.965,318.298 131.668,316.410 132.477 " stroke="none" fill="#1fa1e4" fill-rule="evenodd"></path></g></svg>